<svg viewBox="0 0 512 512" xmlns="http://www.w3.org/2000/svg" xmlns:xlink="http://www.w3.org/1999/xlink"><filter id="a" color-interpolation-filters="sRGB" height="1.2175" width="1.1145" x="-.05724" y="-.10874"><feGaussianBlur stdDeviation="6.3676897"/></filter><g fill="#800080"><path d="m-123.08-93.268s-122.69 3.3715-324.2 87.895c-205.35 86.136-316.52 191.28-316.52 191.28s298.78-205.79 653.8-249.32zm472.8 148.61 15.753-2.5274s-101.19-101.63-280.07-138.93c101.45 30.515 191.45 75.131 264.31 141.45zm30.253 43.337c2.039-4.4549 11.568 12.453 18.241 19.305.3925 1.4566.89794 2.3205-2.6331 1.9341-.43461-1.4945-.97893-1.8885-.97893-1.8885s-8.8296-4.1872-11.725-7.4747c-2.8978-3.2871-3.9345-9.4168-2.9043-11.875zm262.72 504.4s-1.5692-223.15-354.12-241.42c-44.683-2.3153-100.89-2.0425-157.28 3.1254-278.37 29.938-319.15-294.25-110.68-330.45 86.363-15.38 194.72 21.783 300.78 59.529.81129 12.654 2.3892 23.819 11.656 33.4 9.2633 9.5782 42.165 17.881 52.888 22.76 10.723 4.881 45.264 22.531 67.683 46.645 3.5679-8.5092 37.519-35.459 37.519-35.459s-8.6468 1.0047-29.514-4.6303c-20.869-5.6346-46.938-26.175-47.628-27.439-.68901-1.2664-1.2602-3.3023 3.362-4.6885 3.2934-3.3485-5.7305-12.381-9.647-15.621-3.9142-3.2425-31.673-41.672-32.325-42.562-.65347-.88933-.9319-1.8118-2.7323-2.7832-5.4358-1.1996-28.216 5.1277-28.216 5.1277s-37.284-14.145-53.122-50.723c.8017 6.5925-4.8083 14.401 2.7325 29.01-19.32-6.1098-36.542-18.012-52.25-49.953-5.7174 19.547 2.9031 30.822 2.9031 30.822s-44.905-8.1048-55.705-47.796c-5.9769 18.837 2.7323 29.008 2.7323 29.008s-74.834-30.499-193.4-19.875c-80.035.19565-109.7-137.84-104.56-162.03 0 0-120.13-49.539-347.94-54.966-227.81-5.4301-410.45 34.609-410.45 34.609s397.22-56.734 729.08 42.573c15.445 47.581 55.76 125.45 77.032 162.7-47.1 39.579-100.83 77.684-98.732 194.69 2.0979 117 111.6 209.77 235.75 201.26 118.2-4.8129 199.54-11.577 302.83 30.207 98.906 43.126 190.91 194.26 211.95 335.99-1.7162-106.47-62.788-330.02-254.37-381.59 262.96 20.904 303.78 210.53 303.78 210.53zm-773.51-713.14-12.136-29.147s-156.16-12.808-361.28 21.322c-205.12 34.129-406.81 126.05-406.81 126.05s416.51-147.53 780.22-118.23" stroke-width="12.016"/><g stroke-width="3.7795"><path d="m129.28 188.1c-3.7333.0302-7.01 2.3867-8.25 5.8965-.4054 1.1412-.52343 2.2972-.52343 3.4941v117.65c.13795 4.9023 3.9725 8.7242 8.8301 8.7363 10.182.0151 115.6-.0351 115.6-.0351l-.0389-9.1055h-115.03c-.16214-.97807-.1217-116.12.0378-116.65.9369-.13078 247.48-.084 248.02.043.14892.88803.10659 116.04-.0567 116.65h-19.721v9.1055s.80357.0007 1.1719.0155h19.436c3.6926-.0378 6.9644-2.3528 8.2227-5.834.40535-1.1089.52146-2.2528.52146-3.4219v-117.87c-.0775-3.894-2.7276-7.3145-6.4766-8.3496l-.008-.008c-.99273-.2657-1.984-.31446-3.0098-.31446zm114.81 34.545c-.0771.14816-.13342.25614-.16403.35743-8.3559 22.407-16.704 44.823-25.057 67.227-.0378.0378-.0378.10533-.0378.14842v.0723c0 .0302.0378.0425.0431.0762h11.471l.0227.004c.0884-.2555.19049-.47501.26759-.71289 1.7761-5.0458 3.5531-10.083 5.334-15.133.29631-.81169.59165-1.6283.85939-2.4434.10583-.34016.27779-.5177.6367-.47461.11603.0151.25096 0 .36926 0h25.072c2.2664 6.2792 4.5175 12.512 6.7598 18.746h11.736c-8.4665-22.684-16.898-45.278-25.312-67.867zm-44.115.22462v.004c-.65409 0-1.0665.18977-1.4981.69726-8.7391 10.349-17.499 20.7-26.258 31.037-.11603.13229-.26722.25172-.51954.48438v-25.746c0-2.1309.0378-4.2684 0-6.4004h-10.99v67.508c.8725.15307 10.417.12003 11.006-.0391v-.85938l-.0302-.004v-23.547c0-.5311.14815-.90352.58204-1.2402 1.8186-1.4381 3.6136-2.9186 5.4082-4.3867.17915-.13304.353-.25096.57615-.41406.19351.2502.35565.45469.50589.67968 3.0506 4.4012 6.1038 8.7976 9.1523 13.191 3.7408 5.4128 7.4876 10.802 11.221 16.189.2075.31257.39772.54883.85742.54883 3.9307-.0151 7.8574-.0136 11.783-.0136.13002 0 .26381-.043.4707-.0898-8.6926-12.66-17.35-25.23-26.033-37.879 1.747-2.028 3.4369-3.9804 5.125-5.9805 1.6925-1.9582 3.3786-3.9227 5.0684-5.8945 1.6872-1.9668 3.363-3.9375 5.0547-5.9063 1.6882-1.9734 3.3799-3.9423 5.0488-5.9102 1.6806-1.953 3.3474-3.9068 5.1289-6.0137h-.99024c-3.5572 0-7.1122.0223-10.67-.0155zm99.916.0723-10.855.002c-.18331.84408-.1372 67.033.0389 67.588h39.535v-9.4043h-19.07c-1.6032 0-3.2202.0151-4.8164 0-1.5733-.0151-3.1396.0582-4.7715-.0351v-52.926l-.0113-.0117c0-1.7482.0661-3.4813-.0488-5.2129zm36.238.0234v67.549h10.949c.0378-.11338.0646-.17522.0646-.25194v-66.902h-.008c0-.1047 0-.19193-.0378-.30078 0-.0302-.0378-.0378-.0378-.0566 0-.0151-.0431-.037-.0431-.037zm-86.16 9.4551c.11603.17726.20863.28532.24038.40234 1.8359 6.8551 4.3441 13.506 6.623 20.23.94666 2.7979 1.9288 5.5778 2.8926 8.377.0733.25059.14552.50082.23433.81055h-19.693c.0881-.29178.1629-.54208.24794-.79297 2.3114-6.693 4.6559-13.356 6.9082-20.066.90372-2.6971 1.5841-5.4799 2.3535-8.2305.065-.20825.10583-.41669.19352-.73046zm4.3184 77.387v18.574h3.9277v-6.6074h1.6914c1.8037 0 3.225-.28705 4.2656-.85937 1.058-.57232 1.8128-1.3272 2.2637-2.2637.45093-.95387.67578-1.9677.67578-3.043 0-1.8037-.55412-3.217-1.664-4.2402-1.0926-1.0406-2.8371-1.5606-5.2304-1.5606zm16.207 0v11.967c0 2.0638.64044 3.7281 1.9238 4.9941 1.2834 1.2487 3.1564 1.8731 5.6191 1.8731 1.7344 0 3.1657-.29518 4.293-.88479 1.1446-.60699 1.9938-1.4221 2.5488-2.4453.57233-1.0406.85935-2.2029.85935-3.4863v-12.018h-3.9277v11.342c0 1.4395-.29518 2.4974-.88475 3.1738-.57233.67638-1.4998 1.0137-2.7832 1.0137-1.2314 0-2.1608-.3112-2.7852-.93554-.62434-.62435-.93555-1.7004-.93555-3.2266v-11.367zm19.797 0v18.574h3.9278v-7.1289h2.1074l4.4219 7.1289h4.3711l-5.4629-8.0918c.607-.2775 1.1711-.63283 1.6914-1.0664.53764-.45092.96125-.98698 1.2734-1.6113.32958-.64169.49414-1.3885.49414-2.2383 0-1.873-.60631-3.2683-1.8203-4.1875-1.1967-.91918-3.0616-1.3789-5.5937-1.3789zm17.17 0v18.574h3.9277v-6.6074h1.6914c1.8037 0 3.225-.28705 4.2656-.85937 1.0579-.57232 1.8128-1.3272 2.2637-2.2637.45094-.95387.67578-1.9677.67578-3.043 0-1.8037-.55411-3.217-1.664-4.2402-1.0926-1.0406-2.8371-1.5606-5.2305-1.5606zm16.336 0v18.574h11.473v-3.252h-7.5449v-15.322zm14.699 0v18.574h10.691v-3.252h-6.7636v-4.7871h6.2949v-3.2246h-6.2949v-4.0859h6.7636v-3.2246zm-80.281 3.2246h1.7949c2.0812 0 3.1211.90336 3.1211 2.707 0 .98856-.3292 1.7073-.98827 2.1582-.64173.43358-1.517.65039-2.627.65039h-1.3008zm36.004 0h1.1972c1.2834 0 2.219.19072 2.8086.57227.60703.3642.91014.98855.91014 1.873 0 .84981-.28497 1.4922-.85742 1.9258-.55498.43357-1.4824.65039-2.7832.65039h-1.2754zm17.17 0h1.7949c2.0812 0 3.1211.90336 3.1211 2.707 0 .98856-.3292 1.7073-.98831 2.1582-.64169.43358-1.517.65039-2.6269.65039h-1.3008z" filter="url(#a)" opacity=".5"/><path d="m129.28 184.1c-3.7333.0302-7.01 2.3867-8.25 5.8965-.4054 1.1412-.52343 2.2972-.52343 3.4941v117.65c.13795 4.9023 3.9725 8.7242 8.8301 8.7363 10.182.0151 115.6-.0351 115.6-.0351l-.0389-9.1055h-115.03c-.16214-.97807-.1217-116.12.0378-116.65.9369-.13078 247.48-.084 248.02.043.14892.88803.10659 116.04-.0567 116.65h-19.721v9.1055s.80357.0007 1.1719.0155h19.436c3.6926-.0378 6.9644-2.3528 8.2227-5.834.40535-1.1089.52146-2.2528.52146-3.4219v-117.87c-.0775-3.894-2.7276-7.3145-6.4766-8.3496l-.008-.008c-.99273-.2657-1.984-.31446-3.0098-.31446zm114.81 34.545c-.0771.14816-.13342.25614-.16403.35743-8.3559 22.407-16.704 44.823-25.057 67.227-.0378.0378-.0378.10533-.0378.14842v.0723c0 .0302.0378.0425.0431.0762h11.471l.0227.004c.0884-.2555.19049-.47501.26759-.71289 1.7761-5.0458 3.5531-10.083 5.334-15.133.29631-.81169.59165-1.6283.85939-2.4434.10583-.34016.27779-.5177.6367-.47461.11603.0151.25096 0 .36926 0h25.072c2.2664 6.2792 4.5175 12.512 6.7598 18.746h11.736c-8.4665-22.684-16.898-45.278-25.312-67.867zm-44.115.22462v.004c-.65409 0-1.0665.18977-1.4981.69726-8.7391 10.349-17.499 20.7-26.258 31.037-.11603.13229-.26722.25172-.51954.48438v-25.746c0-2.1309.0378-4.2684 0-6.4004h-10.99v67.508c.8725.15307 10.417.12003 11.006-.0391v-.85938l-.0302-.004v-23.547c0-.5311.14815-.90352.58204-1.2402 1.8186-1.4381 3.6136-2.9186 5.4082-4.3867.17915-.13304.353-.25096.57615-.41406.19351.2502.35565.45469.50589.67968 3.0506 4.4012 6.1038 8.7976 9.1523 13.191 3.7408 5.4128 7.4876 10.802 11.221 16.189.2075.31257.39772.54883.85742.54883 3.9307-.0151 7.8574-.0136 11.783-.0136.13002 0 .26381-.043.4707-.0898-8.6926-12.66-17.35-25.23-26.033-37.879 1.747-2.028 3.4369-3.9804 5.125-5.9805 1.6925-1.9582 3.3786-3.9227 5.0684-5.8945 1.6872-1.9668 3.363-3.9375 5.0547-5.9063 1.6882-1.9734 3.3799-3.9423 5.0488-5.9102 1.6806-1.953 3.3474-3.9068 5.1289-6.0137h-.99024c-3.5572 0-7.1122.0223-10.67-.0155zm99.916.0723-10.855.002c-.18331.84408-.1372 67.033.0389 67.588h39.535v-9.4043h-19.07c-1.6032 0-3.2202.0151-4.8164 0-1.5733-.0151-3.1396.0582-4.7715-.0351v-52.926l-.0113-.0117c0-1.7482.0661-3.4813-.0488-5.2129zm36.238.0234v67.549h10.949c.0378-.11338.0646-.17522.0646-.25194v-66.902h-.008c0-.1047 0-.19193-.0378-.30078 0-.0302-.0378-.0378-.0378-.0566 0-.0151-.0431-.037-.0431-.037zm-86.16 9.4551c.11603.17726.20863.28532.24038.40234 1.8359 6.8551 4.3441 13.506 6.623 20.23.94666 2.7979 1.9288 5.5778 2.8926 8.377.0733.25059.14552.50082.23433.81055h-19.693c.0881-.29178.1629-.54208.24794-.79297 2.3114-6.693 4.6559-13.356 6.9082-20.066.90372-2.6971 1.5841-5.4799 2.3535-8.2305.065-.20825.10583-.41669.19352-.73046zm4.3184 77.387v18.574h3.9277v-6.6074h1.6914c1.8037 0 3.225-.28705 4.2656-.85937 1.058-.57232 1.8128-1.3272 2.2637-2.2637.45093-.95387.67578-1.9677.67578-3.043 0-1.8037-.55412-3.217-1.664-4.2402-1.0926-1.0406-2.8371-1.5606-5.2304-1.5606zm16.207 0v11.967c0 2.0638.64044 3.7281 1.9238 4.9941 1.2834 1.2487 3.1564 1.8731 5.6191 1.8731 1.7344 0 3.1657-.29518 4.293-.88479 1.1446-.60699 1.9938-1.4221 2.5488-2.4453.57233-1.0406.85935-2.2029.85935-3.4863v-12.018h-3.9277v11.342c0 1.4395-.29518 2.4974-.88475 3.1738-.57233.67638-1.4998 1.0137-2.7832 1.0137-1.2314 0-2.1608-.3112-2.7852-.93554-.62434-.62435-.93555-1.7004-.93555-3.2266v-11.367zm19.797 0v18.574h3.9278v-7.1289h2.1074l4.4219 7.1289h4.3711l-5.4629-8.0918c.607-.2775 1.1711-.63283 1.6914-1.0664.53764-.45092.96125-.98698 1.2734-1.6113.32958-.64169.49414-1.3885.49414-2.2383 0-1.873-.60631-3.2683-1.8203-4.1875-1.1967-.91918-3.0616-1.3789-5.5937-1.3789zm17.17 0v18.574h3.9277v-6.6074h1.6914c1.8037 0 3.225-.28705 4.2656-.85937 1.0579-.57232 1.8128-1.3272 2.2637-2.2637.45094-.95387.67578-1.9677.67578-3.043 0-1.8037-.55411-3.217-1.664-4.2402-1.0926-1.0406-2.8371-1.5606-5.2305-1.5606zm16.336 0v18.574h11.473v-3.252h-7.5449v-15.322zm14.699 0v18.574h10.691v-3.252h-6.7636v-4.7871h6.2949v-3.2246h-6.2949v-4.0859h6.7636v-3.2246zm-80.281 3.2246h1.7949c2.0812 0 3.1211.90336 3.1211 2.707 0 .98856-.3292 1.7073-.98827 2.1582-.64173.43358-1.517.65039-2.627.65039h-1.3008zm36.004 0h1.1972c1.2834 0 2.219.19072 2.8086.57227.60703.3642.91014.98855.91014 1.873 0 .84981-.28497 1.4922-.85742 1.9258-.55498.43357-1.4824.65039-2.7832.65039h-1.2754zm17.17 0h1.7949c2.0812 0 3.1211.90336 3.1211 2.707 0 .98856-.3292 1.7073-.98831 2.1582-.64169.43358-1.517.65039-2.6269.65039h-1.3008z"/></g></g></svg>